<?xml version="1.0" encoding="UTF-8" standalone="no"?>
<svg
   viewBox="0 0 2000 2000"
   version="1.1"
   xmlns="http://www.w3.org/2000/svg"
   xmlns:svg="http://www.w3.org/2000/svg">
  <defs
     id="defs1">
    <style
       id="style1">
      .cls-1, .cls-2, .cls-3, .cls-4, .cls-5, .cls-6, .cls-7, .cls-8 {
        stroke-width: 0px;
      }

      .cls-8 {
        fill: #fff;
      }
    </style>
  </defs>
  <path
     class="cls-3"
     d="m 1533.77,180.33 c -17.31,44.61 -56.02,74.52 -99.93,82.43 -63.22,132.84 -82.238,285.04 -82.238,285.04 l -204.6656,-10.01519 c 0,0 136.2636,-197.30481 148.8636,-338.85481 v -0.1 c -19.51,-33.51 -24.01,-75.22 -8.9,-114.24 26.41,-68.22 103.13,-102.03 171.35,-75.62 68.12,26.51 102.03,103.23 75.52,171.35 z"
     id="path1"
     style="fill:#ffffff;fill-opacity:1" />
  <path
     class="cls-7"
     d="m 466.17,180.82 c 17.31,44.61 56.02,74.52 99.93,82.43 63.22,132.84 61.82217,281.73077 61.82217,281.73077 l 207.42774,-22.58491 c 0,0 -118.60991,-181.42586 -131.20991,-322.97586 v -0.1 C 723.65,165.81 728.15,124.1 713.04,85.08 686.63,16.86 609.91,-16.95 541.69,9.46 473.57,35.97 439.66,112.69 466.17,180.81 Z"
     id="path2"
     style="fill:#ffffff;fill-opacity:1" />
  <path
     id="path12"
     class="cls-3"
     d="M 1000 437.2207 C 738.32052 437.2207 508.15046 471.62992 348.80078 504.83984 C 348.80078 504.83984 278.98027 660.09073 259.57031 788.23047 C 194.95045 809.93043 143.13921 830.93928 61.609375 861.94922 C 61.609375 966.779 128.33008 1224.4609 128.33008 1224.4609 C 128.33008 1224.4609 96.520102 1397.5199 69.410156 1723.6191 C 238.65982 1921.0887 750.9205 1998.9098 1000 2000.0098 C 1249.0796 1998.9098 1761.3402 1921.0787 1930.5898 1723.6191 C 1903.48 1397.5099 1871.6699 1224.4609 1871.6699 1224.4609 C 1871.6699 1224.4609 1938.3906 966.779 1938.3906 861.94922 C 1856.8708 830.93928 1805.0495 809.94043 1740.4297 788.23047 C 1721.0197 660.09073 1651.1992 504.83984 1651.1992 504.83984 C 1491.8496 471.62992 1261.6794 437.2207 1000 437.2207 z M 954.71289 562.53125 C 983.84533 562.40281 999.94922 562.93945 999.94922 562.93945 L 999.94922 562.94922 C 999.94922 562.94922 1075.0707 560.45079 1194.3105 567.55078 C 1295.9404 573.65078 1429.5794 586.66018 1576.0293 614.16016 C 1674.2592 827.32994 1789.4904 1382.4001 1817.9004 1658.0898 C 1626.1406 1789.8297 1368.7604 1841.4504 1194.3105 1861.6504 C 1078.9707 1874.9504 999.94922 1874.6504 999.94922 1874.6504 L 999.94922 1874.6602 C 999.94922 1874.6602 500.48922 1876.8594 182.08984 1658.0898 C 210.3998 1382.4004 325.73934 827.32972 423.86914 614.16016 C 662.66866 569.29524 867.31557 562.91656 954.71289 562.53125 z "
     style="fill:#ffffff;fill-opacity:1" />
  <path
     id="path9"
     class="cls-8"
     d="M 659.14062 912.7793 A 193.31 193.31 0 0 0 465.83008 1106.0898 A 193.31 193.31 0 0 0 659.14062 1299.4004 A 193.31 193.31 0 0 0 852.44922 1106.0898 A 193.31 193.31 0 0 0 659.14062 912.7793 z M 658.40039 977.08008 C 726.42032 977.08008 781.53906 1032.2008 781.53906 1100.2207 L 781.5293 1100.2207 C 781.5293 1168.1406 726.41056 1223.2598 658.39062 1223.2598 C 590.37069 1223.2598 535.34961 1168.1406 535.34961 1100.2207 C 535.34961 1087.2207 537.35078 1074.7098 541.05078 1063.0098 C 549.95077 1081.1197 568.56033 1093.5195 590.07031 1093.5195 C 620.38028 1093.5195 644.89062 1069.0092 644.89062 1038.6992 C 644.89062 1015.0892 630.08967 995.09085 609.17969 987.38086 C 624.27967 980.78087 640.89041 977.08008 658.40039 977.08008 z " />
  <g
     id="g8">
    <path
       id="path10"
       class="cls-8"
       d="M 1320.7207 912.7793 A 193.31 193.31 0 0 0 1127.4102 1106.0898 A 193.31 193.31 0 0 0 1320.7207 1299.4004 A 193.31 193.31 0 0 0 1514.0293 1106.0898 A 193.31 193.31 0 0 0 1320.7207 912.7793 z M 1319.9902 977.08008 C 1388.0102 977.08008 1443.1309 1032.2008 1443.1309 1100.2207 L 1443.1191 1100.2207 C 1443.1191 1168.1406 1388.0004 1223.2598 1319.9805 1223.2598 C 1251.9605 1223.2598 1196.9395 1168.1406 1196.9395 1100.2207 C 1196.9395 1087.2207 1198.9406 1074.7098 1202.6406 1063.0098 C 1211.5406 1081.1197 1230.1502 1093.5195 1251.6602 1093.5195 C 1281.9701 1093.5195 1306.4805 1069.0092 1306.4805 1038.6992 C 1306.4805 1015.0892 1291.6795 995.09085 1270.7695 987.38086 C 1285.8695 980.78087 1302.4803 977.08008 1319.9902 977.08008 z " />
  </g>
  <rect
     class="cls-6"
     x="579.56"
     y="1490.2"
     width="840.88"
     height="146.45"
     id="rect8"
     style="fill:#ffffff;fill-opacity:1" />
</svg>