<!DOCTYPE svg PUBLIC "-//W3C//DTD SVG 1.1//EN" "http://www.w3.org/Graphics/SVG/1.1/DTD/svg11.dtd">
<!-- Uploaded to: SVG Repo, www.svgrepo.com, Transformed by: SVG Repo Mixer Tools -->
<svg fill="#ffffff" width="800px" height="800px" viewBox="-16 -16 64.00 64.00" version="1.1" xmlns="http://www.w3.org/2000/svg">
<g id="SVGRepo_bgCarrier" stroke-width="0"/>
<g id="SVGRepo_tracerCarrier" stroke-linecap="round" stroke-linejoin="round"/>
<g id="SVGRepo_iconCarrier"> <title>user-group</title> <path d="M13 16.168c1.918-0.007 3.635-0.864 4.793-2.215l0.007-0.009c0.93 1.101 2.312 1.796 3.856 1.796 2.782 0 5.036-2.255 5.036-5.036s-2.255-5.036-5.036-5.036c-1.171 0-2.248 0.4-3.104 1.070l0.011-0.008c-1.106-1.979-3.187-3.294-5.576-3.294-3.516 0-6.366 2.85-6.366 6.366s2.85 6.366 6.366 6.366c0.005 0 0.009 0 0.014 0h-0.001zM19.152 8.172c0.643-0.643 1.532-1.040 2.513-1.040 1.964 0 3.556 1.592 3.556 3.556s-1.592 3.556-3.556 3.556c-1.244 0-2.339-0.639-2.974-1.606l-0.008-0.013c0.432-0.824 0.689-1.8 0.696-2.835v-0.002c-0.008-0.582-0.094-1.141-0.247-1.671l0.011 0.044zM13 4.909c2.695 0 4.879 2.185 4.879 4.879s-2.185 4.879-4.879 4.879-4.879-2.185-4.879-4.879c0-0 0-0 0-0.001v0c0.003-2.694 2.186-4.876 4.88-4.879h0zM30.732 24.996c-0.938-4.22-4.648-7.328-9.085-7.328-1.725 0-3.34 0.47-4.725 1.289l0.043-0.024c-1.18-0.434-2.543-0.687-3.965-0.689h-0.001c-5.713 0.024-10.488 4.013-11.717 9.356l-0.016 0.081c-0.011 0.048-0.017 0.103-0.017 0.16 0 0.414 0.336 0.75 0.75 0.75 0.357 0 0.656-0.25 0.731-0.585l0.001-0.005c1.071-4.757 5.261-8.258 10.268-8.258s9.196 3.5 10.254 8.188l0.013 0.070c0.076 0.34 0.374 0.59 0.732 0.59 0 0 0.001 0 0.001 0h-0c0.057-0 0.112-0.007 0.165-0.019l-0.005 0.001c0.34-0.076 0.59-0.375 0.59-0.733 0-0.057-0.006-0.112-0.018-0.165l0.001 0.005c-0.79-3.454-2.981-6.285-5.929-7.916l-0.062-0.031c0.863-0.358 1.864-0.566 2.915-0.566 3.72 0 6.83 2.609 7.602 6.097l0.010 0.052c0.076 0.34 0.374 0.59 0.732 0.59 0 0 0.001 0 0.001 0h-0c0.057-0 0.112-0.007 0.165-0.019l-0.005 0.001c0.34-0.076 0.59-0.375 0.59-0.733 0-0.057-0.006-0.112-0.018-0.165l0.001 0.005z"/> </g>
</svg>