<!DOCTYPE svg PUBLIC "-//W3C//DTD SVG 1.1//EN" "http://www.w3.org/Graphics/SVG/1.1/DTD/svg11.dtd">
<!-- Uploaded to: SVG Repo, www.svgrepo.com, Transformed by: SVG Repo Mixer Tools -->
<svg width="800px" height="800px" viewBox="0 0 16 16" xmlns="http://www.w3.org/2000/svg" fill="none">
<g id="SVGRepo_bgCarrier" stroke-width="0"/>
<g id="SVGRepo_tracerCarrier" stroke-linecap="round" stroke-linejoin="round"/>
<g id="SVGRepo_iconCarrier"> <g fill="#ffffff"> <path d="M2.23 2.674a.75.75 0 00-.96 1.152L3.578 5.75 1.27 7.674a.75.75 0 00.96 1.152l3-2.5a.75.75 0 000-1.152l-3-2.5zM8.25 5a.75.75 0 000 1.5h6a.75.75 0 000-1.5h-6zM5.5 9.25a.75.75 0 01.75-.75h8a.75.75 0 010 1.5h-8a.75.75 0 01-.75-.75zM6.25 12a.75.75 0 000 1.5h8a.75.75 0 000-1.5h-8z"/> </g> </g>
</svg>