<?xml version="1.0" encoding="UTF-8" standalone="no"?>
<svg
   version="1.1"
   width="3333"
   height="3333"
   id="svg4"
   sodipodi:docname="QueueIconPlay.svg"
   inkscape:version="1.3.2 (091e20ef0f, 2023-11-25, custom)"
   xmlns:inkscape="http://www.inkscape.org/namespaces/inkscape"
   xmlns:sodipodi="http://sodipodi.sourceforge.net/DTD/sodipodi-0.dtd"
   xmlns="http://www.w3.org/2000/svg"
   xmlns:svg="http://www.w3.org/2000/svg">
  <defs
     id="defs4" />
  <sodipodi:namedview
     id="namedview4"
     pagecolor="#505050"
     bordercolor="#ffffff"
     borderopacity="1"
     inkscape:showpageshadow="0"
     inkscape:pageopacity="0"
     inkscape:pagecheckerboard="1"
     inkscape:deskcolor="#505050"
     showgrid="false"
     inkscape:zoom="0.24842484"
     inkscape:cx="1664.4873"
     inkscape:cy="1666.5"
     inkscape:window-width="1920"
     inkscape:window-height="1032"
     inkscape:window-x="0"
     inkscape:window-y="0"
     inkscape:window-maximized="1"
     inkscape:current-layer="svg4" />
  <path
     d="m 1037.1772,1095.752 c 0.3906,0.099 0.7812,0.1987 1.1836,0.301 13.7759,3.5808 25.5397,10.212 35.8769,19.9297 4.1543,3.9028 8.5807,7.4839 13,11.0798 1.9711,1.6288 3.9055,3.2987 5.8426,4.9676 2.2084,1.8989 4.4517,3.7503 6.7121,5.5871 2.9388,2.4082 5.8229,4.8823 8.7178,7.3428 2.7773,2.3596 5.5573,4.7124 8.3857,7.0107 2.4319,1.9788 4.8107,4.014 7.1855,6.0605 1.7623,1.5155 3.541,3.0057 5.3458,4.4708 2.114,1.716 4.1876,3.4728 6.25,5.25 2.508,2.1609 5.0459,4.2774 7.6152,6.3652 2.9388,2.4082 5.8229,4.8823 8.7178,7.3428 2.7773,2.3596 5.5573,4.7124 8.3857,7.0107 2.4315,1.9785 4.8098,4.0135 7.1844,6.0594 2.2084,1.8989 4.4517,3.7503 6.7121,5.5871 2.9388,2.4082 5.8229,4.8823 8.7178,7.3428 2.7773,2.3596 5.5573,4.7124 8.3857,7.0107 2.4319,1.9788 4.8107,4.014 7.1855,6.0605 1.7623,1.5155 3.541,3.0057 5.3458,4.4708 2.114,1.716 4.1876,3.4728 6.25,5.25 2.508,2.1609 5.0459,4.2774 7.6152,6.3652 2.9388,2.4082 5.8229,4.8823 8.7178,7.3428 2.7773,2.3596 5.5573,4.7124 8.3857,7.0107 2.4315,1.9785 4.8098,4.0135 7.1844,6.0594 2.2084,1.8989 4.4517,3.7503 6.7121,5.5871 2.9388,2.4082 5.8229,4.8823 8.7178,7.3428 2.7773,2.3596 5.5573,4.7124 8.3857,7.0107 2.4315,1.9785 4.8098,4.0135 7.1844,6.0594 2.2084,1.8989 4.4517,3.7503 6.7121,5.5871 2.9388,2.4082 5.8229,4.8823 8.7178,7.3428 2.7773,2.3596 5.5573,4.7124 8.3857,7.0107 2.4319,1.9788 4.8107,4.014 7.1855,6.0605 1.7623,1.5155 3.541,3.0057 5.3458,4.4708 2.114,1.716 4.1876,3.4728 6.25,5.25 2.508,2.1609 5.0459,4.2774 7.6152,6.3652 2.9388,2.4082 5.8229,4.8823 8.7178,7.3428 2.7773,2.3596 5.5573,4.7124 8.3857,7.0107 2.4315,1.9785 4.8098,4.0135 7.1844,6.0594 2.2084,1.8989 4.4517,3.7503 6.7121,5.5871 2.9388,2.4082 5.8229,4.8823 8.7178,7.3428 2.7773,2.3596 5.5573,4.7124 8.3857,7.0107 3.0253,2.4661 5.9962,4.9923 8.9422,7.5523 0.7812,0.6787 1.5649,1.3543 2.3489,2.0298 3.198,2.8178 5.9154,5.805 8.4902,9.1992 0.2004,0.2602 0.4007,0.5205 0.6072,0.7886 9.039,11.8096 15.3991,27.1543 15.4944,42.1743 0,0.3703 0.01,0.7406 0.011,1.1222 0.1134,15.3906 0.1134,15.3906 -1.6123,21.9149 -0.099,0.3906 -0.1987,0.7812 -0.301,1.1836 -4.2271,16.2625 -13.0548,31.3042 -26.3748,41.7617 -1.3248,1.0551 -2.5748,2.1617 -3.8242,3.3047 -2.1215,1.9311 -4.3117,3.7538 -6.541,5.5586 -1.5861,1.2952 -3.1492,2.6148 -4.709,3.9414 -1.9732,1.6773 -3.9582,3.3361 -5.9688,4.9687 -2.4318,1.9788 -4.8106,4.014 -7.1854,6.0605 -2.1948,1.8875 -4.4264,3.7244 -6.6739,5.5489 -1.6603,1.3684 -3.2921,2.7674 -4.9219,4.1719 -2.4947,2.1499 -5.0211,4.2524 -7.5781,6.3281 -1.6603,1.3684 -3.2921,2.7674 -4.9219,4.1719 -2.4947,2.1499 -5.0211,4.2524 -7.5781,6.3281 -1.6603,1.3684 -3.2921,2.7674 -4.9219,4.1719 -2.508,2.1609 -5.0459,4.2774 -7.6152,6.3652 -2.657,2.1773 -5.2674,4.4102 -7.8848,6.6348 -3.0544,2.5961 -6.1076,5.1906 -9.2188,7.7187 -2.1232,1.7277 -4.2077,3.4948 -6.2812,5.2813 -2.508,2.1608 -5.0459,4.2774 -7.6152,6.3652 -2.657,2.1773 -5.2674,4.4102 -7.8848,6.6348 -3.0544,2.5961 -6.1076,5.1906 -9.2188,7.7187 -2.4318,1.9788 -4.8106,4.014 -7.1854,6.0605 -2.1948,1.8875 -4.4264,3.7244 -6.6739,5.5489 -1.6603,1.3684 -3.2921,2.7674 -4.9219,4.1719 -2.508,2.1609 -5.0459,4.2774 -7.6152,6.3652 -2.657,2.1773 -5.2674,4.4102 -7.8848,6.6348 -3.0544,2.5961 -6.1076,5.1906 -9.2188,7.7187 -2.1232,1.7277 -4.2077,3.4948 -6.2812,5.2813 -2.508,2.1608 -5.0459,4.2774 -7.6152,6.3652 -2.657,2.1773 -5.2674,4.4102 -7.8848,6.6348 -3.0544,2.5961 -6.1076,5.1906 -9.2188,7.7187 -2.4318,1.9788 -4.8106,4.014 -7.1854,6.0605 -2.1948,1.8875 -4.4264,3.7244 -6.6739,5.5489 -1.6603,1.3684 -3.2921,2.7674 -4.9219,4.1719 -2.508,2.1609 -5.0459,4.2774 -7.6152,6.3652 -2.657,2.1773 -5.2674,4.4102 -7.8848,6.6348 -3.0544,2.5961 -6.1076,5.1906 -9.2188,7.7187 -2.4318,1.9788 -4.8106,4.014 -7.1854,6.0605 -2.1948,1.8875 -4.4264,3.7244 -6.6739,5.5489 -1.6603,1.3684 -3.2921,2.7674 -4.9219,4.1719 -2.508,2.1609 -5.0459,4.2774 -7.6152,6.3652 -2.657,2.1773 -5.2674,4.4102 -7.8848,6.6348 -3.0544,2.5961 -6.1076,5.1906 -9.2188,7.7187 -2.1232,1.7277 -4.2077,3.4948 -6.2812,5.2813 -2.0735,1.7865 -4.158,3.5536 -6.2813,5.2812 -1.9917,1.6209 -3.9727,3.253 -5.9375,4.9063 -0.2747,0.2311 -0.5495,0.4623 -0.8326,0.7004 -1.8317,1.5543 -3.5821,3.1751 -5.3236,4.8308 -12.6632,11.8162 -30.6525,19.7052 -48.0664,19.9004 -0.3641,0 -0.7283,0.01 -1.1034,0.015 -8.1552,0.088 -16.0297,0.035 -23.9552,-2.134 -0.43273,-0.118 -0.86545,-0.2361 -1.31128,-0.3577 -13.22615,-3.7509 -24.40775,-10.5668 -34.18872,-20.1423 -0.36739,-0.3423 -0.73477,-0.6845 -1.11328,-1.0371 -8.74912,-8.3134 -15.06308,-20.0501 -18.57422,-31.4942 -0.16986,-0.5469 -0.16986,-0.5469 -0.34314,-1.1048 -2.11673,-7.3732 -2.69137,-14.7262 -2.65952,-22.3506 -0.002,-0.9255 -0.004,-1.851 -0.007,-2.7766 -0.006,-2.5279 -0.003,-5.0557 0.001,-7.5836 0.003,-2.7561 -0.002,-5.5122 -0.006,-8.2683 -0.006,-4.8254 -0.007,-9.6508 -0.004,-14.4763 0.004,-6.8395 10e-4,-13.679 -0.004,-20.5185 -0.0107,-13.5259 -0.0117,-27.0518 -0.009,-40.5777 3.8e-4,-1.8671 7.4e-4,-3.7343 10e-4,-5.6014 7e-5,-0.3709 1.4e-4,-0.7418 2.1e-4,-1.1239 10e-4,-8.229 -3e-5,-16.4579 -0.002,-24.6869 -2.9e-4,-1.1271 -5.7e-4,-2.2541 -8.5e-4,-3.3812 -7.6e-4,-3.0216 -0.002,-6.0432 -0.002,-9.0647 -0.005,-21.0862 -0.008,-42.1723 -0.004,-63.2585 7e-5,-0.3973 1.4e-4,-0.7945 2.2e-4,-1.2038 8.3e-4,-4.4295 0.002,-8.859 0.003,-13.2886 8e-5,-0.3999 1.6e-4,-0.7998 2.4e-4,-1.2118 6.5e-4,-3.2447 6.5e-4,-3.2447 9.8e-4,-4.8517 0.005,-25.5774 10e-4,-51.1549 -0.0105,-76.7323 -0.003,-6.4451 -0.006,-12.8902 -0.009,-19.3353 -1.8e-4,-0.3969 -3.5e-4,-0.7938 -5.2e-4,-1.2027 -0.005,-12.2372 -0.008,-24.4743 -0.008,-36.7115 -10e-6,-0.3843 -2e-5,-0.7687 -2e-5,-1.1647 -1.2e-4,-8.4381 3.9e-4,-16.8762 10e-4,-25.3143 3.8e-4,-3.0195 7.2e-4,-6.0389 10e-4,-9.0584 8e-5,-0.7511 1.7e-4,-1.5022 2.5e-4,-2.2534 10e-4,-11.9539 -0.003,-23.9078 -0.01,-35.8617 -0.007,-12.3784 -0.007,-24.7567 0.002,-37.135 0.005,-7.1319 0.004,-14.2638 -0.005,-21.3957 -0.005,-4.7676 -0.003,-9.5353 0.005,-14.3029 0.004,-2.7139 0.006,-5.4277 -0.002,-8.1416 -0.0648,-24.6393 4.36516,-46.0456 22.0891,-64.3377 0.57705,-0.5972 1.14457,-1.2037 1.7102,-1.8117 9.58741,-10.0719 23.10875,-16.6003 36.45895,-19.8809 0.3368,-0.088 0.6737,-0.1764 1.0207,-0.2673 10.6057,-2.684 24.4191,-2.5258 34.9793,0.2673 z m 60.5,244.5 c 0,60.885 0,121.77 0,184.5 2.5309,-1.8982 4.9682,-3.7744 7.3437,-5.8438 0.6093,-0.5262 1.2187,-1.0522 1.8282,-1.5781 0.4563,-0.3944 0.4563,-0.3944 0.9218,-0.7969 3.338,-2.8775 6.7052,-5.7201 10.125,-8.5 2.1233,-1.7276 4.2078,-3.4947 6.2813,-5.2812 2.508,-2.1608 5.0459,-4.2774 7.6152,-6.3652 2.657,-2.1773 5.2674,-4.4102 7.8848,-6.6348 3.0544,-2.5961 6.1076,-5.1906 9.2187,-7.7188 2.4319,-1.9787 4.8107,-4.0139 7.1855,-6.0604 2.1948,-1.8875 4.4264,-3.7244 6.6739,-5.5489 1.6603,-1.3684 3.2921,-2.7674 4.9219,-4.1719 2.508,-2.1609 5.0459,-4.2774 7.6152,-6.3652 2.657,-2.1773 5.2674,-4.4102 7.8848,-6.6348 3.0544,-2.5961 6.1076,-5.1906 9.2187,-7.7188 2.4267,-1.9745 4.8005,-4.005 7.1701,-6.0472 2.6655,-2.2924 5.3767,-4.5241 8.1112,-6.734 -3.6333,-3.6718 -7.4944,-7.0273 -11.5078,-10.2754 -1.686,-1.3837 -3.3405,-2.8003 -4.9922,-4.2246 -2.0623,-1.7773 -4.136,-3.534 -6.25,-5.25 -2.423,-1.9669 -4.7905,-3.9922 -7.1543,-6.0293 -1.7623,-1.5155 -3.5409,-3.0057 -5.3457,-4.4707 -2.423,-1.9669 -4.7905,-3.9922 -7.1543,-6.0293 -1.7623,-1.5155 -3.5409,-3.0057 -5.3457,-4.4707 -2.114,-1.716 -4.1876,-3.4728 -6.25,-5.25 -2.508,-2.1609 -5.0459,-4.2774 -7.6152,-6.3652 -2.9388,-2.4082 -5.8229,-4.8823 -8.7178,-7.3428 -2.7773,-2.3596 -5.5573,-4.7124 -8.3858,-7.0108 -2.4318,-1.9787 -4.8106,-4.0139 -7.1854,-6.0604 -1.7623,-1.5155 -3.541,-3.0057 -5.3458,-4.4708 -2.114,-1.716 -4.1875,-3.4729 -6.25,-5.25 -4.0608,-3.4947 -8.1354,-6.8825 -12.5,-10 z"
     fill="#000000"
     id="path1"
     style="fill:#ffffff;stroke-width:0.5" />
  <path
     d="m 1482.6203,2082.6882 c 0.5949,-9e-4 1.1899,0 1.8029,0 1.6527,0 3.3055,0 4.9583,0 1.8043,0 3.6086,0 5.4129,0 3.1749,0 6.3499,0 9.5248,0 4.753,0 9.5061,-7e-4 14.2592,0 8.1003,0 16.2006,-0.01 24.301,-0.01 8.2111,-2e-4 16.4221,0 24.6332,0 0.5183,-2e-4 1.0366,-3e-4 1.5705,-5e-4 2.1108,-7e-4 4.2216,0 6.3324,0 24.9988,-0.01 49.9976,-0.011 74.9965,-0.014 12.4463,0 24.8927,0 37.3391,-0.01 39.9171,-0.01 79.8342,-0.012 119.7512,-0.013 1.9081,-10e-5 3.8162,-2e-4 5.7243,-3e-4 3.8268,-1e-4 7.6536,-3e-4 11.4803,-5e-4 4.4803,-1e-4 8.9606,-3e-4 13.4409,-5e-4 1.2823,-1e-4 2.5646,-1e-4 3.8469,-2e-4 41.1863,0 82.3726,-0.01 123.5589,-0.021 29.5922,-0.01 59.1844,-0.016 88.7767,-0.018 0.6085,-10e-5 1.217,-10e-5 1.8439,-2e-4 13.358,-10e-4 26.716,0 40.074,0 4.7797,-10e-5 9.5595,-2e-4 14.3392,-3e-4 1.1891,-1e-4 2.3782,-1e-4 3.5673,-1e-4 18.9513,-5e-4 37.9027,-0.01 56.8541,-0.013 19.0876,-0.01 38.1753,-0.01 57.2629,-0.01 2.6377,6e-4 5.2754,0 7.9131,0 0.517,1e-4 1.0341,2e-4 1.5668,3e-4 8.1869,0 16.3737,0 24.5605,-0.01 8.0505,-0.01 16.1009,-0.01 24.1513,-3e-4 4.7194,0 9.4387,0 14.158,-0.01 3.1366,0 6.2732,0 9.4098,0 1.7766,0 3.5531,0 5.3296,0 9.0386,-0.025 17.6319,0.307 26.3164,3.0357 0.4113,0.1271 0.8227,0.2542 1.2465,0.3852 20.1646,6.45 36.4985,20.6596 46.3365,39.3243 7.9498,15.7621 10.9409,36.2088 6.417,53.4468 -0.099,0.3913 -0.1987,0.7826 -0.301,1.1858 -5.5817,21.4697 -18.9624,38.6783 -38.0076,49.8923 -10.7862,6.1419 -23.2477,9.51 -35.6345,9.4857 -0.5949,8e-4 -1.1899,0 -1.8029,0 -1.6528,0 -3.3055,0 -4.9583,0 -1.8043,-10e-4 -3.6086,0 -5.4129,0 -3.1749,0 -6.3499,0 -9.5248,0 -4.753,0 -9.5061,7e-4 -14.2592,0 -8.1003,0 -16.2006,0.01 -24.301,0.01 -8.2111,2e-4 -16.4221,0 -24.6332,0 -0.7774,2e-4 -0.7774,2e-4 -1.5705,5e-4 -2.1108,7e-4 -4.2216,0 -6.3324,0 -24.9988,0.01 -49.9976,0.011 -74.9965,0.014 -12.4463,0 -24.8927,0 -37.3391,0.01 -39.9171,0.01 -79.8342,0.012 -119.7512,0.013 -1.9081,1e-4 -3.8162,2e-4 -5.7243,2e-4 -3.8268,2e-4 -7.6536,4e-4 -11.4803,5e-4 -4.4803,2e-4 -8.9606,4e-4 -13.4409,6e-4 -1.2823,1e-4 -2.5646,1e-4 -3.8469,2e-4 -41.1863,0 -82.3726,0.01 -123.5589,0.021 -29.5922,0.01 -59.1844,0.016 -88.7767,0.018 -0.6085,1e-4 -1.217,1e-4 -1.8439,2e-4 -13.358,0 -26.716,0 -40.074,0 -4.7797,1e-4 -9.5595,2e-4 -14.3392,3e-4 -1.1891,10e-5 -2.3782,10e-5 -3.5673,10e-5 -18.9513,5e-4 -37.9027,0.01 -56.8541,0.013 -19.0876,0.01 -38.1753,0.01 -57.2629,0.01 -2.6377,-5e-4 -5.2754,-0 -7.9131,0 -0.517,-1e-4 -1.0341,-2e-4 -1.5668,-3e-4 -8.1869,0 -16.3737,0 -24.5605,0.01 -8.0505,0.01 -16.1009,0.01 -24.1514,3e-4 -4.7193,0 -9.4386,0 -14.158,0.01 -3.1365,0 -6.2731,0 -9.4097,0 -1.7766,0 -3.5531,0 -5.3296,0 -9.0386,0.025 -17.6319,-0.307 -26.3164,-3.0358 -0.4113,-0.127 -0.8227,-0.2541 -1.2465,-0.3851 -20.1646,-6.45 -36.4985,-20.6596 -46.3365,-39.3243 -7.9498,-15.7621 -10.9409,-36.2088 -6.417,-53.4468 0.099,-0.3913 0.1987,-0.7826 0.301,-1.1858 5.5817,-21.4698 18.9624,-38.6783 38.0076,-49.8923 10.7862,-6.1419 23.2477,-9.51 35.6345,-9.4857 z"
     fill="#000000"
     id="path2"
     style="fill:#ffffff;stroke-width:0.5" />
  <path
     d="m 1482.6203,1718.1882 c 0.5949,-9e-4 1.1899,0 1.8029,0 1.6527,0 3.3055,0 4.9583,0 1.8043,10e-4 3.6086,-10e-4 5.4129,0 3.1749,0 6.3499,0 9.5248,0 4.753,0 9.5061,-7e-4 14.2592,0 8.1003,0 16.2006,-0.01 24.301,-0.01 8.2111,-2e-4 16.4221,0 24.6332,0 0.5183,-2e-4 1.0366,-3e-4 1.5705,-5e-4 2.1108,-7e-4 4.2216,0 6.3324,0 24.9988,-0.01 49.9976,-0.011 74.9965,-0.014 12.4463,0 24.8927,0 37.3391,0 39.9171,-0.01 79.8342,-0.012 119.7512,-0.013 1.9081,-10e-5 3.8162,-2e-4 5.7243,-3e-4 3.8268,-10e-5 7.6536,-3e-4 11.4803,-5e-4 4.4803,-10e-5 8.9606,-3e-4 13.4409,-5e-4 1.2823,-10e-5 2.5646,-10e-5 3.8469,-2e-4 41.1863,0 82.3726,-0.01 123.5589,-0.021 29.5922,-0.01 59.1844,-0.016 88.7767,-0.018 0.6085,-10e-5 1.217,-10e-5 1.8439,-2e-4 13.358,-10e-4 26.716,0 40.074,0 4.7797,-10e-5 9.5595,-2e-4 14.3392,-3e-4 1.1891,-10e-5 2.3782,-10e-5 3.5673,-10e-5 18.9513,-5e-4 37.9027,-0.01 56.8541,-0.013 19.0876,-0.01 38.1753,-0.01 57.2629,-0.01 2.6377,6e-4 5.2754,0 7.9131,0 0.517,10e-5 1.0341,2e-4 1.5668,3e-4 8.1869,0 16.3737,0 24.5605,-0.01 8.0505,-0.01 16.1009,-0.01 24.1513,-3e-4 4.7194,0 9.4387,0 14.158,-0.01 3.1366,0 6.2732,0 9.4098,0 1.7766,0 3.5531,0 5.3296,0 9.0386,-0.025 17.6319,0.307 26.3164,3.0357 0.4113,0.1271 0.8227,0.2542 1.2465,0.3852 20.1646,6.45 36.4985,20.6596 46.3365,39.3243 7.9498,15.7621 10.9409,36.2088 6.417,53.4468 -0.099,0.3913 -0.1987,0.7826 -0.301,1.1858 -5.5817,21.4697 -18.9624,38.6783 -38.0076,49.8923 -10.7862,6.1419 -23.2477,9.51 -35.6345,9.4857 -0.5949,8e-4 -1.1899,0 -1.8029,0 -1.6528,0 -3.3055,0 -4.9583,0 -1.8043,-10e-4 -3.6086,0 -5.4129,0 -3.1749,0 -6.3499,0 -9.5248,0 -4.753,0 -9.5061,7e-4 -14.2592,0 -8.1003,0 -16.2006,0.01 -24.301,0.01 -8.2111,2e-4 -16.4221,0 -24.6332,0 -0.7774,2e-4 -0.7774,2e-4 -1.5705,5e-4 -2.1108,7e-4 -4.2216,0 -6.3324,0 -24.9988,0.01 -49.9976,0.011 -74.9965,0.014 -12.4463,0 -24.8927,0 -37.3391,0 -39.9171,0.01 -79.8342,0.012 -119.7512,0.013 -1.9081,10e-5 -3.8162,2e-4 -5.7243,2e-4 -3.8268,2e-4 -7.6536,4e-4 -11.4803,5e-4 -4.4803,2e-4 -8.9606,4e-4 -13.4409,6e-4 -1.2823,10e-5 -2.5646,10e-5 -3.8469,2e-4 -41.1863,0 -82.3726,0.01 -123.5589,0.021 -29.5922,0.01 -59.1844,0.016 -88.7767,0.018 -0.6085,10e-5 -1.217,10e-5 -1.8439,2e-4 -13.358,10e-4 -26.716,0 -40.074,0 -4.7797,10e-5 -9.5595,2e-4 -14.3392,3e-4 -1.1891,10e-5 -2.3782,10e-5 -3.5673,10e-5 -18.9513,5e-4 -37.9027,0.01 -56.8541,0.013 -19.0876,0.01 -38.1753,0.01 -57.2629,0.01 -2.6377,-5e-4 -5.2754,-10e-4 -7.9131,0 -0.517,-10e-5 -1.0341,-2e-4 -1.5668,-3e-4 -8.1869,0 -16.3737,0 -24.5605,0.01 -8.0505,0.01 -16.1009,0.01 -24.1514,3e-4 -4.7193,0 -9.4386,0 -14.158,0.01 -3.1365,0 -6.2731,0 -9.4097,0 -1.7766,0 -3.5531,0 -5.3296,0 -9.0386,0.025 -17.6319,-0.307 -26.3164,-3.0358 -0.4113,-0.127 -0.8227,-0.2541 -1.2465,-0.3851 -20.1646,-6.45 -36.4985,-20.6596 -46.3365,-39.3243 -7.9498,-15.7621 -10.9409,-36.2088 -6.417,-53.4468 0.099,-0.3913 0.1987,-0.7826 0.301,-1.1858 5.5817,-21.4698 18.9624,-38.6783 38.0076,-49.8923 10.7862,-6.1419 23.2477,-9.51 35.6345,-9.4857 z"
     fill="#000000"
     id="path3"
     style="fill:#ffffff;stroke-width:0.5" />
  <path
     d="m 1689.7834,1353.6882 c 0.6752,0 0.6752,0 1.3641,0 1.5103,0 3.0206,-8e-4 4.5309,6e-4 1.0977,-8e-4 2.1954,0 3.293,0 3.0292,0 6.0583,0 9.0875,0 2.9515,3e-4 5.9029,0 8.8544,0 6.1111,0 12.2222,-0.01 18.3333,-0.01 6.1938,-2e-4 12.3875,0 18.5813,0 0.3911,-2e-4 0.7822,-3e-4 1.1852,-5e-4 1.5928,-7e-4 3.1857,0 4.7786,0 18.8599,-0.01 37.7199,-0.011 56.5798,-0.014 9.3912,0 18.7824,0 28.1736,0 30.1234,-0.01 60.2468,-0.012 90.3702,-0.013 1.4398,-10e-5 2.8796,-2e-4 4.3194,-3e-4 2.8875,-10e-5 5.775,-3e-4 8.6625,-5e-4 3.3806,-10e-5 6.7612,-3e-4 10.1418,-5e-4 0.9676,-1e-4 1.9351,-1e-4 2.9027,-2e-4 31.0735,0 62.1471,-0.01 93.2207,-0.021 22.3277,-0.01 44.6555,-0.016 66.9832,-0.018 0.6889,-10e-5 0.6889,-10e-5 1.3917,-2e-4 10.0817,-10e-4 20.1634,0 30.2452,0 3.6075,-10e-5 7.215,-2e-4 10.8226,-3e-4 0.8974,-10e-5 1.7949,-10e-5 2.6924,-10e-5 14.2971,-5e-4 28.5942,-0.01 42.8913,-0.013 14.4022,-0.01 28.8045,-0.01 43.2067,-0.01 1.9913,6e-4 3.9827,0 5.974,0 0.5855,10e-5 0.5855,10e-5 1.1828,3e-4 6.1743,0 12.3486,0 18.5229,-0.01 6.0751,-0.01 12.1502,-0.01 18.2254,-3e-4 3.2481,0 6.4962,0 9.7444,0 2.9578,-0.01 5.9155,0 8.8733,0 1.0606,0 2.1213,-10e-5 3.1819,0 8.0684,-0.029 15.8313,0.602 23.577,3.0357 0.4113,0.1271 0.8227,0.2542 1.2465,0.3852 20.1646,6.45 36.4985,20.6596 46.3365,39.3243 4.6524,9.2243 7.8931,20.0353 8.0537,30.396 0.01,0.372 0.012,0.7439 0.019,1.1271 0.2086,15.3861 -2.3115,28.8227 -9.6557,42.4237 -0.283,0.5298 -0.5659,1.0596 -0.8574,1.6055 -9.4967,17.027 -26.1119,29.7221 -44.6426,35.3945 -6.3356,1.7659 -12.5126,3.081 -19.1062,3.0638 -0.4501,8e-4 -0.9003,0 -1.3641,0 -1.5103,0 -3.0206,8e-4 -4.5309,-6e-4 -1.0977,8e-4 -2.1954,0 -3.293,0 -3.0292,0 -6.0583,0 -9.0875,0 -2.9515,-3e-4 -5.9029,0 -8.8544,0 -6.1111,0 -12.2222,0.01 -18.3333,0.01 -6.1938,2e-4 -12.3875,0 -18.5813,0 -0.3911,2e-4 -0.7822,3e-4 -1.1852,5e-4 -1.5928,7e-4 -3.1857,0 -4.7786,0 -18.8599,0.01 -37.7199,0.011 -56.5798,0.014 -9.3912,0 -18.7824,0 -28.1736,0 -30.1234,0.01 -60.2468,0.012 -90.3702,0.013 -1.4398,10e-5 -2.8796,2e-4 -4.3194,2e-4 -2.8875,2e-4 -5.775,4e-4 -8.6625,5e-4 -3.3806,2e-4 -6.7612,4e-4 -10.1418,6e-4 -0.9676,10e-5 -1.9351,10e-5 -2.9027,2e-4 -31.0736,0 -62.1471,0.01 -93.2207,0.021 -22.3277,0.01 -44.6555,0.016 -66.9832,0.018 -0.6889,10e-5 -0.6889,10e-5 -1.3917,2e-4 -10.0817,10e-4 -20.1634,0 -30.2452,0 -3.6075,10e-5 -7.215,2e-4 -10.8226,3e-4 -0.8974,10e-5 -1.7949,10e-5 -2.6924,10e-5 -14.2971,5e-4 -28.5942,0.01 -42.8913,0.013 -14.4022,0.01 -28.8045,0.01 -43.2067,0.01 -1.9913,-5e-4 -3.9827,-10e-4 -5.974,0 -0.5855,-10e-5 -0.5855,-10e-5 -1.1828,-3e-4 -6.1743,0 -12.3486,0 -18.5229,0.01 -6.0751,0.01 -12.1502,0.01 -18.2254,3e-4 -3.2481,0 -6.4962,0 -9.7444,0 -2.9578,0.01 -5.9155,0 -8.8733,0 -1.0607,0 -2.1213,10e-5 -3.1819,0 -8.0684,0.029 -15.8313,-0.602 -23.577,-3.0358 -0.4113,-0.127 -0.8227,-0.2541 -1.2465,-0.3851 -20.1646,-6.45 -36.4985,-20.6596 -46.3365,-39.3243 -7.9498,-15.7621 -10.9409,-36.2088 -6.417,-53.4468 0.099,-0.3913 0.1987,-0.7826 0.301,-1.1858 5.5817,-21.4698 18.9624,-38.6783 38.0076,-49.8923 10.2561,-5.8401 22.4715,-9.5166 34.2976,-9.4857 z"
     fill="#000000"
     id="path4"
     style="fill:#ffffff;stroke-width:0.5" />
</svg>
