<?xml version="1.0" encoding="UTF-8" standalone="no"?>
<svg
   version="1.1"
   width="3333"
   height="3333"
   id="svg5"
   sodipodi:docname="QueueIconPause.svg"
   inkscape:version="1.3.2 (091e20ef0f, 2023-11-25, custom)"
   xmlns:inkscape="http://www.inkscape.org/namespaces/inkscape"
   xmlns:sodipodi="http://sodipodi.sourceforge.net/DTD/sodipodi-0.dtd"
   xmlns="http://www.w3.org/2000/svg"
   xmlns:svg="http://www.w3.org/2000/svg">
  <defs
     id="defs5" />
  <sodipodi:namedview
     id="namedview5"
     pagecolor="#505050"
     bordercolor="#ffffff"
     borderopacity="1"
     inkscape:showpageshadow="0"
     inkscape:pageopacity="0"
     inkscape:pagecheckerboard="1"
     inkscape:deskcolor="#505050"
     inkscape:zoom="0.24842484"
     inkscape:cx="1666.5"
     inkscape:cy="1666.5"
     inkscape:window-width="1920"
     inkscape:window-height="1032"
     inkscape:window-x="0"
     inkscape:window-y="0"
     inkscape:window-maximized="1"
     inkscape:current-layer="svg5" />
  <path
     d="m 1482.6142,2082.8959 c 0.595,-8e-4 1.1899,0 1.8029,0 1.6528,0 3.3056,0 4.9584,1e-4 1.8043,9e-4 3.6086,0 5.4129,0 3.1749,0 6.3498,0 9.5247,0 4.7531,10e-4 9.5061,-8e-4 14.2592,0 8.1003,0 16.2007,-0.01 24.301,-0.01 8.2111,-2e-4 16.4222,0 24.6333,0 0.5182,-10e-5 1.0365,-3e-4 1.5705,-5e-4 2.1108,-6e-4 4.2215,0 6.3323,0 24.9988,-0.01 49.9977,-0.011 74.9965,-0.014 12.4464,0 24.8928,0 37.3392,-0.01 39.917,-0.01 79.8341,-0.012 119.7512,-0.013 1.9081,-1e-4 3.8162,-1e-4 5.7243,-2e-4 3.8267,-2e-4 7.6535,-4e-4 11.4803,-5e-4 4.4803,-2e-4 8.9605,-4e-4 13.4408,-6e-4 1.2823,-1e-4 2.5646,-1e-4 3.8469,-2e-4 41.1863,0 82.3726,-0.01 123.559,-0.021 29.5922,-0.01 59.1844,-0.016 88.7766,-0.018 0.6085,-1e-4 1.217,-1e-4 1.844,-1e-4 13.358,0 26.716,0 40.074,0 4.7797,-10e-5 9.5594,-2e-4 14.3391,-3e-4 1.1891,0 2.3782,-1e-4 3.5673,-1e-4 18.9514,-5e-4 37.9028,-0.01 56.8541,-0.013 19.0877,-0.01 38.1753,-0.01 57.263,-0.01 2.6376,5e-4 5.2753,0 7.913,0 0.5171,10e-5 1.0341,2e-4 1.5669,3e-4 8.1868,0 16.3736,0 24.5605,-0.01 8.0504,-0.01 16.1008,-0.01 24.1513,-3e-4 4.7193,0 9.4386,0 14.158,-0.01 3.1366,0 6.2731,0 9.4097,0 1.7766,0 3.5531,0 5.3297,0 9.0386,-0.025 17.6318,0.307 26.3163,3.0358 0.4114,0.1271 0.8227,0.2542 1.2465,0.3851 20.1646,6.45 36.4986,20.6597 46.3366,39.3244 7.9498,15.762 10.9409,36.2087 6.4169,53.4467 -0.099,0.3913 -0.1986,0.7827 -0.301,1.1858 -5.5817,21.4698 -18.9624,38.6784 -38.0075,49.8924 -10.7862,6.1418 -23.2478,9.5099 -35.6345,9.4857 -0.595,8e-4 -1.1899,0 -1.8029,0 -1.6528,0 -3.3056,0 -4.9584,-10e-5 -1.8043,-0 -3.6086,0 -5.4129,0 -3.1749,0 -6.3498,0 -9.5247,0 -4.7531,0 -9.5062,7e-4 -14.2592,0 -8.1004,0 -16.2007,0.01 -24.301,0.01 -8.2111,3e-4 -16.4222,0 -24.6333,0 -0.7774,3e-4 -0.7774,3e-4 -1.5705,5e-4 -2.1108,7e-4 -4.2215,0 -6.3323,0 -24.9989,0.01 -49.9977,0.011 -74.9965,0.014 -12.4464,0 -24.8928,0 -37.3392,0.01 -39.917,0.01 -79.8341,0.012 -119.7512,0.013 -1.9081,1e-4 -3.8162,2e-4 -5.7243,3e-4 -3.8267,1e-4 -7.6535,3e-4 -11.4803,5e-4 -4.4803,2e-4 -8.9605,4e-4 -13.4408,6e-4 -1.2823,0 -2.5646,1e-4 -3.8469,1e-4 -41.1863,0 -82.3727,0.01 -123.559,0.021 -29.5922,0.01 -59.1844,0.016 -88.7766,0.018 -0.6085,0 -1.217,1e-4 -1.844,1e-4 -13.358,10e-4 -26.716,0 -40.074,0 -4.7797,0 -9.5594,10e-5 -14.3391,3e-4 -1.1891,0 -2.3782,0 -3.5673,10e-5 -18.9514,4e-4 -37.9028,0.01 -56.8541,0.013 -19.0877,0.01 -38.1753,0.01 -57.263,0.01 -2.6377,-6e-4 -5.2753,0 -7.913,0 -0.5171,-1e-4 -1.0341,-2e-4 -1.5669,-2e-4 -8.1868,0 -16.3736,0 -24.5605,0.01 -8.0504,0.01 -16.1008,0.01 -24.1513,3e-4 -4.7194,0 -9.4387,0 -14.158,0.01 -3.1366,0 -6.2732,0 -9.4097,0 -1.7766,0 -3.5531,0 -5.3297,0 -9.0386,0.025 -17.6318,-0.307 -26.3164,-3.0358 -0.4113,-0.1271 -0.8226,-0.2542 -1.2464,-0.3852 -20.1647,-6.4499 -36.4986,-20.6596 -46.3366,-39.3243 -7.9498,-15.762 -10.9409,-36.2087 -6.417,-53.4468 0.099,-0.3913 0.1987,-0.7826 0.3011,-1.1858 5.5817,-21.4697 18.9624,-38.6783 38.0075,-49.8923 10.7862,-6.1419 23.2478,-9.51 35.6345,-9.4857 z"
     fill="#000000"
     id="path1"
     style="fill:#ffffff;stroke-width:0.5" />
  <path
     d="m 1482.6142,1718.3959 c 0.595,-8e-4 1.1899,0 1.8029,0 1.6528,0 3.3056,0 4.9584,10e-5 1.8043,9e-4 3.6086,-10e-4 5.4129,0 3.1749,0 6.3498,0 9.5247,0 4.7531,10e-4 9.5061,-8e-4 14.2592,0 8.1003,0 16.2007,-0.01 24.301,-0.01 8.2111,-2e-4 16.4222,0 24.6333,0 0.5182,-10e-5 1.0365,-3e-4 1.5705,-5e-4 2.1108,-6e-4 4.2215,0 6.3323,0 24.9988,-0.01 49.9977,-0.011 74.9965,-0.014 12.4464,0 24.8928,0 37.3392,-0.01 39.917,-0.01 79.8341,-0.012 119.7512,-0.013 1.9081,-10e-5 3.8162,-10e-5 5.7243,-2e-4 3.8267,-2e-4 7.6535,-4e-4 11.4803,-5e-4 4.4803,-2e-4 8.9605,-4e-4 13.4408,-6e-4 1.2823,-10e-5 2.5646,-10e-5 3.8469,-2e-4 41.1863,0 82.3726,-0.01 123.559,-0.021 29.5922,-0.01 59.1844,-0.016 88.7766,-0.018 0.6085,-10e-5 1.217,-10e-5 1.844,-10e-5 13.358,0 26.716,0 40.074,0 4.7797,-10e-5 9.5594,-2e-4 14.3391,-3e-4 1.1891,0 2.3782,-1e-4 3.5673,-1e-4 18.9514,-5e-4 37.9028,-0.01 56.8541,-0.013 19.0877,-0.01 38.1753,-0.01 57.263,-0.01 2.6376,5e-4 5.2753,0 7.913,0 0.5171,10e-5 1.0341,2e-4 1.5669,3e-4 8.1868,0 16.3736,0 24.5605,-0.01 8.0504,-0.01 16.1008,-0.01 24.1513,-3e-4 4.7193,0 9.4386,0 14.158,-0.01 3.1366,0 6.2731,0 9.4097,0 1.7766,0 3.5531,0 5.3297,0 9.0386,-0.025 17.6318,0.307 26.3163,3.0358 0.4114,0.1271 0.8227,0.2542 1.2465,0.3851 20.1646,6.45 36.4986,20.6597 46.3366,39.3244 7.9498,15.762 10.9409,36.2087 6.4169,53.4467 -0.099,0.3913 -0.1986,0.7827 -0.301,1.1858 -5.5817,21.4698 -18.9624,38.6784 -38.0075,49.8924 -10.7862,6.1418 -23.2478,9.5099 -35.6345,9.4857 -0.595,8e-4 -1.1899,0 -1.8029,0 -1.6528,0 -3.3056,0 -4.9584,-1e-4 -1.8043,-10e-4 -3.6086,0 -5.4129,0 -3.1749,0 -6.3498,0 -9.5247,0 -4.7531,0 -9.5062,7e-4 -14.2592,0 -8.1004,0 -16.2007,0.01 -24.301,0.01 -8.2111,3e-4 -16.4222,0 -24.6333,0 -0.7774,3e-4 -0.7774,3e-4 -1.5705,5e-4 -2.1108,7e-4 -4.2215,0 -6.3323,0 -24.9989,0.01 -49.9977,0.011 -74.9965,0.014 -12.4464,0 -24.8928,0 -37.3392,0.01 -39.917,0.01 -79.8341,0.012 -119.7512,0.013 -1.9081,10e-5 -3.8162,2e-4 -5.7243,3e-4 -3.8267,10e-5 -7.6535,3e-4 -11.4803,5e-4 -4.4803,2e-4 -8.9605,4e-4 -13.4408,6e-4 -1.2823,0 -2.5646,1e-4 -3.8469,1e-4 -41.1863,0 -82.3727,0.01 -123.559,0.021 -29.5922,0.01 -59.1844,0.016 -88.7766,0.018 -0.6085,0 -1.217,10e-5 -1.844,10e-5 -13.358,10e-4 -26.716,0 -40.074,0 -4.7797,0 -9.5594,10e-5 -14.3391,3e-4 -1.1891,0 -2.3782,0 -3.5673,10e-5 -18.9514,4e-4 -37.9028,0.01 -56.8541,0.013 -19.0877,0.01 -38.1753,0.01 -57.263,0.01 -2.6377,-6e-4 -5.2753,0 -7.913,0 -0.5171,-1e-4 -1.0341,-2e-4 -1.5669,-2e-4 -8.1868,0 -16.3736,0 -24.5605,0.01 -8.0504,0.01 -16.1008,0.01 -24.1513,3e-4 -4.7194,0 -9.4387,0 -14.158,0.01 -3.1366,0 -6.2732,0 -9.4097,0 -1.7766,0 -3.5531,0 -5.3297,0 -9.0386,0.025 -17.6318,-0.307 -26.3164,-3.0358 -0.4113,-0.1271 -0.8226,-0.2542 -1.2464,-0.3852 -20.1647,-6.4499 -36.4986,-20.6596 -46.3366,-39.3243 -7.9498,-15.762 -10.9409,-36.2087 -6.417,-53.4468 0.099,-0.3913 0.1987,-0.7826 0.3011,-1.1858 5.5817,-21.4697 18.9624,-38.6783 38.0075,-49.8923 10.7862,-6.1419 23.2478,-9.51 35.6345,-9.4857 z"
     fill="#000000"
     id="path2"
     style="fill:#ffffff;stroke-width:0.5" />
  <path
     d="m 1689.7773,1353.8959 c 0.6753,0 0.6753,0 1.3641,0 1.5104,0 3.0206,-8e-4 4.531,6e-4 1.0976,-8e-4 2.1953,0 3.293,0 3.0291,0 6.0583,0 9.0874,0 2.9515,3e-4 5.903,0 8.8544,0 6.1111,0 12.2222,-0.01 18.3333,-0.01 6.1938,-2e-4 12.3876,0 18.5814,0 0.3911,-10e-5 0.7822,-3e-4 1.1851,-5e-4 1.5929,-6e-4 3.1857,0 4.7786,0 18.86,-0.01 37.7199,-0.011 56.5799,-0.014 9.3911,0 18.7823,0 28.1735,-0.01 30.1234,-0.01 60.2468,-0.012 90.3702,-0.013 1.4398,-10e-5 2.8796,-10e-5 4.3194,-2e-4 2.8875,-2e-4 5.7751,-4e-4 8.6626,-5e-4 3.3806,-2e-4 6.7612,-4e-4 10.1418,-6e-4 0.9675,-10e-5 1.9351,-10e-5 2.9026,-2e-4 31.0736,0 62.1472,-0.01 93.2207,-0.021 22.3278,-0.01 44.6555,-0.016 66.9833,-0.018 0.6888,-1e-4 0.6888,-1e-4 1.3916,-1e-4 10.0817,0 20.1635,0 30.2452,0 3.6075,-10e-5 7.2151,-2e-4 10.8226,-3e-4 0.8975,0 1.7949,-10e-5 2.6924,-10e-5 14.2971,-5e-4 28.5942,-0.01 42.8913,-0.013 14.4023,-0.01 28.8045,-0.01 43.2068,-0.01 1.9913,5e-4 3.9826,0 5.9739,0 0.5855,2e-4 0.5855,2e-4 1.1829,3e-4 6.1743,0 12.3486,0 18.5229,-0.01 6.0751,-0.01 12.1502,-0.01 18.2253,-3e-4 3.2482,0 6.4963,0 9.7444,0 2.9579,-0.01 5.9156,0 8.8734,0 1.0606,0 2.1212,-1e-4 3.1818,0 8.0684,-0.029 15.8314,0.602 23.577,3.0358 0.4114,0.1271 0.8227,0.2542 1.2465,0.3851 20.1646,6.45 36.4986,20.6597 46.3366,39.3244 4.6524,9.2243 7.8931,20.0353 8.0537,30.3959 0.01,0.372 0.013,0.7439 0.019,1.1272 0.2086,15.386 -2.3114,28.8226 -9.6557,42.4236 -0.2829,0.5298 -0.5659,1.0596 -0.8574,1.6055 -9.4967,17.027 -26.1119,29.7222 -44.6426,35.3945 -6.3356,1.766 -12.5125,3.0811 -19.1061,3.0639 -0.4502,8e-4 -0.9003,0 -1.3642,0 -1.5103,0 -3.0206,7e-4 -4.5309,-7e-4 -1.0976,9e-4 -2.1953,0 -3.293,0 -3.0291,0 -6.0583,0 -9.0874,0 -2.9515,-4e-4 -5.903,0 -8.8544,0 -6.1111,0 -12.2222,0.01 -18.3334,0.01 -6.1937,3e-4 -12.3875,0 -18.5813,0 -0.3911,2e-4 -0.7822,4e-4 -1.1851,5e-4 -1.5929,7e-4 -3.1858,0 -4.7786,0 -18.86,0.01 -37.7199,0.011 -56.5799,0.014 -9.3912,0 -18.7823,0 -28.1735,0.01 -30.1234,0.01 -60.2468,0.012 -90.3702,0.013 -1.4398,10e-5 -2.8796,2e-4 -4.3194,3e-4 -2.8875,10e-5 -5.7751,3e-4 -8.6626,5e-4 -3.3806,2e-4 -6.7612,4e-4 -10.1418,6e-4 -0.9675,0 -1.9351,10e-5 -2.9026,10e-5 -31.0736,0 -62.1472,0.01 -93.2207,0.021 -22.3278,0.01 -44.6555,0.016 -66.9833,0.018 -0.6888,0 -0.6888,0 -1.3916,1e-4 -10.0818,10e-4 -20.1635,0 -30.2452,0 -3.6075,0 -7.2151,10e-5 -10.8226,3e-4 -0.8975,0 -1.7949,0 -2.6924,10e-5 -14.2971,4e-4 -28.5942,0.01 -42.8913,0.013 -14.4023,0.01 -28.8045,0.01 -43.2068,0.01 -1.9913,-6e-4 -3.9826,0 -5.9739,0 -0.5855,-10e-5 -0.5855,-10e-5 -1.1829,-2e-4 -6.1743,0 -12.3486,0 -18.5229,0.01 -6.0751,0.01 -12.1502,0.01 -18.2253,3e-4 -3.2482,0 -6.4963,0 -9.7444,0 -2.9579,0.01 -5.9156,0 -8.8734,0 -1.0606,0 -2.1212,0 -3.1818,0 -8.0685,0.029 -15.8314,-0.6021 -23.5771,-3.0358 -0.4113,-0.1271 -0.8226,-0.2542 -1.2464,-0.3852 -20.1647,-6.4499 -36.4986,-20.6596 -46.3366,-39.3243 -7.9498,-15.762 -10.9409,-36.2087 -6.417,-53.4468 0.099,-0.3913 0.1987,-0.7826 0.3011,-1.1858 5.5817,-21.4697 18.9624,-38.6783 38.0075,-49.8923 10.2561,-5.84 22.4715,-9.5166 34.2976,-9.4857 z"
     fill="#000000"
     id="path3"
     style="fill:#ffffff;stroke-width:0.5" />
  <path
     d="m 1271.1858,1094.2009 c 1.0269,0 2.0537,-0.01 3.0806,-0.011 2.7634,-0.01 5.5267,-0.01 8.2902,8e-4 2.9075,0.01 5.8149,3e-4 8.7224,0 4.8803,0 9.7606,0 14.6409,0.011 5.6228,0.011 11.2454,0.01 16.8682,0 4.8487,-0.01 9.6973,-0.01 14.546,-0.01 2.8867,0 5.7733,0 8.66,0 2.7153,-0.01 5.4305,0 8.1458,0.01 0.9897,0 1.9795,0 2.9693,0 14.1955,-0.058 26.2953,4.1509 36.5619,14.2653 10.3894,10.372 13.7316,22.8902 13.7673,37.1231 3e-4,1.4617 0,2.9233 -0.01,4.385 -0.01,1.9805 0,3.9611 0.01,5.9416 0.01,3.4645 0.01,6.929 0,10.3935 -0.01,5.1519 0,10.3038 0,15.4558 0.01,9.2031 0.01,18.4062 0,27.6093 -0.01,8.0539 -0.01,16.1077 0,24.1616 10e-5,0.5347 3e-4,1.0694 4e-4,1.6203 7e-4,2.1707 0,4.3413 0,6.512 0.01,20.3529 5e-4,40.7058 -0.01,61.0588 -0.01,18.0735 -0.01,36.147 9e-4,54.2205 0.011,20.3162 0.015,40.6325 0.01,60.9487 -7e-4,2.1667 0,4.3333 0,6.4999 -2e-4,0.5335 -3e-4,1.0669 -5e-4,1.6166 0,8.0478 4e-4,16.0957 0.01,24.1436 0.01,9.1529 0,18.3057 -0.01,27.4585 -0.01,5.1195 -0.01,10.239 0,15.3585 0,3.423 0,6.846 -0.01,10.2691 0,1.948 -0.01,3.8959 8e-4,5.8439 0.056,16.3892 -2.9442,29.4117 -14.7612,41.3797 -9.2115,9.2275 -21.3806,13.2387 -34.1583,13.2711 -0.9521,0 -1.9042,-0.01 -2.8563,-0.012 -1.0269,0 -2.0537,0.01 -3.0806,0.011 -2.7634,0.01 -5.5267,0.01 -8.2902,-7e-4 -2.9075,-0.01 -5.8149,-4e-4 -8.7224,0 -4.8803,0 -9.7606,0 -14.6409,-0.011 -5.6228,-0.011 -11.2454,-0.01 -16.8682,0 -4.8487,0.01 -9.6973,0.01 -14.546,0.01 -2.8867,0 -5.7733,0 -8.66,0 -2.7153,0.01 -5.4305,0 -8.1458,-0.01 -0.9897,0 -1.9795,0 -2.9693,0 -14.1955,0.058 -26.2953,-4.1509 -36.562,-14.2654 -10.3893,-10.372 -13.7315,-22.8901 -13.7672,-37.123 -3e-4,-1.4617 0,-2.9233 0.01,-4.385 0.01,-1.9806 0,-3.9611 -0.01,-5.9417 -0.01,-3.4645 -0.01,-6.9289 0,-10.3934 0.01,-5.152 0,-10.3039 0,-15.4558 -0.01,-9.2031 -0.01,-18.4062 0,-27.6093 0.01,-8.0539 0.01,-16.1078 0,-24.1617 -10e-5,-0.5347 -3e-4,-1.0694 -4e-4,-1.6203 -7e-4,-2.1706 0,-4.3413 0,-6.5119 -0.01,-20.3529 -5e-4,-40.7059 0.01,-61.0588 0.01,-18.0735 0.01,-36.147 -9e-4,-54.2205 -0.011,-20.3163 -0.015,-40.6325 -0.01,-60.9488 7e-4,-2.1666 0,-4.3332 0,-6.4999 2e-4,-0.5334 3e-4,-1.0669 5e-4,-1.6165 0,-8.0479 -4e-4,-16.0958 -0.01,-24.1436 -0.01,-9.1529 0,-18.3057 0.01,-27.4586 0.01,-5.1195 0.01,-10.2389 0,-15.3584 0,-3.4231 0,-6.8461 0.01,-10.2691 0,-1.948 0.01,-3.8959 -8e-4,-5.8439 -0.051,-14.8779 -0.051,-14.8779 2.2611,-21.8798 0.1402,-0.4245 0.2803,-0.8491 0.4246,-1.2866 4.3702,-11.9547 13.499,-21.3692 24.7473,-27.0591 7.9817,-3.6522 15.6697,-4.4521 24.3428,-4.4131 z"
     fill="#000000"
     id="path4"
     style="fill:#ffffff;stroke-width:0.5" />
  <path
     d="m 992.6858,1094.2009 c 1.02686,0 2.05371,-0.01 3.08057,-0.011 2.76346,-0.01 5.52673,-0.01 8.29023,8e-4 2.9075,0.01 5.8149,3e-4 8.7224,0 4.8803,0 9.7606,0 14.6409,0.011 5.6228,0.011 11.2454,0.01 16.8682,0 4.8487,-0.01 9.6973,-0.01 14.546,-0.01 2.8867,0 5.7733,0 8.66,0 2.7153,-0.01 5.4305,0 8.1458,0.01 0.9897,0 1.9795,0 2.9693,0 14.1955,-0.058 26.2953,4.1509 36.5619,14.2653 10.3894,10.372 13.7316,22.8902 13.7673,37.1231 3e-4,1.4617 0,2.9233 -0.01,4.385 -0.01,1.9805 0,3.9611 0.01,5.9416 0.01,3.4645 0.01,6.929 0,10.3935 -0.01,5.1519 0,10.3038 0,15.4558 0.01,9.2031 0.01,18.4062 0,27.6093 -0.01,8.0539 -0.01,16.1077 0,24.1616 10e-5,0.5347 3e-4,1.0694 4e-4,1.6203 7e-4,2.1707 0,4.3413 0,6.512 0.01,20.3529 5e-4,40.7058 -0.01,61.0588 -0.01,18.0735 -0.01,36.147 9e-4,54.2205 0.011,20.3162 0.015,40.6325 0.01,60.9487 -7e-4,2.1667 0,4.3333 0,6.4999 -2e-4,0.5335 -3e-4,1.0669 -5e-4,1.6166 0,8.0478 4e-4,16.0957 0.01,24.1436 0.01,9.1529 0,18.3057 -0.01,27.4585 -0.01,5.1195 -0.01,10.239 0,15.3585 0,3.423 0,6.846 -0.01,10.2691 0,1.948 -0.01,3.8959 8e-4,5.8439 0.056,16.3892 -2.9442,29.4117 -14.7612,41.3797 -9.2115,9.2275 -21.3806,13.2387 -34.1583,13.2711 -0.9521,0 -1.9042,-0.01 -2.8563,-0.012 -1.0269,0 -2.0537,0.01 -3.0806,0.011 -2.7634,0.01 -5.5267,0.01 -8.2902,-7e-4 -2.9075,-0.01 -5.8149,-4e-4 -8.7224,0 -4.8803,0 -9.7606,0 -14.6409,-0.011 -5.6228,-0.011 -11.2454,-0.01 -16.8682,0 -4.8487,0.01 -9.6973,0.01 -14.546,0.01 -2.8867,0 -5.7733,0 -8.66,0 -2.71532,0.01 -5.43047,0 -8.14578,-0.01 -0.98977,0 -1.97955,0 -2.96932,0 -14.19553,0.058 -26.29527,-4.1509 -36.56195,-14.2654 -10.38934,-10.372 -13.73152,-22.8901 -13.76729,-37.123 -2.7e-4,-1.4617 0.005,-2.9233 0.0104,-4.385 0.005,-1.9806 -10e-4,-3.9611 -0.006,-5.9417 -0.007,-3.4645 -0.007,-6.9289 -0.002,-10.3934 0.008,-5.152 0.004,-10.3039 -0.002,-15.4558 -0.0105,-9.2031 -0.01,-18.4062 -0.004,-27.6093 0.005,-8.0539 0.006,-16.1078 0.004,-24.1617 -1.6e-4,-0.5347 -3.1e-4,-1.0694 -4.7e-4,-1.6203 -6.2e-4,-2.1706 -10e-4,-4.3413 -0.002,-6.5119 -0.006,-20.3529 -5.7e-4,-40.7059 0.0102,-61.0588 0.009,-18.0735 0.009,-36.147 -9.3e-4,-54.2205 -0.0107,-20.3163 -0.0149,-40.6325 -0.009,-60.9488 6.4e-4,-2.1666 10e-4,-4.3332 0.002,-6.4999 1.5e-4,-0.5334 3.1e-4,-1.0669 4.7e-4,-1.6165 0.002,-8.0479 -3.8e-4,-16.0958 -0.005,-24.1436 -0.006,-9.1529 -0.004,-18.3057 0.007,-27.4586 0.006,-5.1195 0.006,-10.2389 -10e-4,-15.3584 -0.005,-3.4231 -0.002,-6.8461 0.007,-10.2691 0.005,-1.948 0.006,-3.8959 -8.1e-4,-5.8439 -0.0512,-14.8779 -0.0512,-14.8779 2.26113,-21.8798 0.14011,-0.4245 0.28022,-0.8491 0.42457,-1.2866 4.37021,-11.9547 13.49902,-21.3692 24.7473,-27.0591 7.98171,-3.6522 15.66964,-4.4521 24.34278,-4.4131 z"
     fill="#000000"
     id="path5"
     style="fill:#ffffff;stroke-width:0.5" />
</svg>
